<svg width="11" height="10" viewBox="0 0 11 10" fill="none" xmlns="http://www.w3.org/2000/svg">
<path d="M7.13477 2.7793L9.64844 3.14844C9.85938 3.18359 10.0352 3.32422 10.1055 3.53516C10.1758 3.72852 10.123 3.95703 9.96484 4.09766L8.13672 5.9082L8.57617 8.47461C8.61133 8.68555 8.52344 8.89648 8.34766 9.01953C8.17188 9.16016 7.94336 9.16016 7.75 9.07227L5.5 7.85938L3.23242 9.07227C3.05664 9.16016 2.81055 9.16016 2.65234 9.01953C2.47656 8.89648 2.38867 8.68555 2.42383 8.47461L2.8457 5.9082L1.01758 4.09766C0.859375 3.95703 0.806641 3.72852 0.876953 3.53516C0.947266 3.32422 1.12305 3.18359 1.33398 3.14844L3.86523 2.7793L4.99023 0.441406C5.07812 0.248047 5.27148 0.125 5.5 0.125C5.71094 0.125 5.9043 0.248047 5.99219 0.441406L7.13477 2.7793Z" fill="#FF991F"/>
</svg>
